# xmcd
#
# Track frame offsets: 
#        150
#        26723
#        43904
#        61618
#        70132
#        86517
#        109490
#        127197
#        140599
#        154358
#
# Disc length: 2507 seconds
#
# Revision: 0
# Processed by: cddbd v1.5.2PL0 Copyright (c) Steve Scherf et al.
# Submitted via: ExactAudioCopyFreeDBPlugin 1.0
#
DISCID=9309c90a
DTITLE=The Moody Blues - 1967 - Days of Future Passed
DYEAR=1967
DGENRE=
TTITLE0=The Day Begins
TTITLE1=Dawn- Dawn Is A Feeling
TTITLE2=The Morning- Another Morning
TTITLE3=Lunch Break
TTITLE4=Peak Hour
TTITLE5=The Afternoon- Forever Afternoon (Tuesday_) - Time To Get Away
TTITLE6=Evening
TTITLE7=The Sunset
TTITLE8=Twilight Time
TTITLE9=The Night- Nights In White Satin
EXTD=
EXTT0=
EXTT1=
EXTT2=
EXTT3=
EXTT4=
EXTT5=
EXTT6=
EXTT7=
EXTT8=
EXTT9=
PLAYORDER=
